<svg xmlns="http://www.w3.org/2000/svg" width="1200" height="675" viewBox="0 0 1200 675" role="img" aria-labelledby="title desc">
  <title id="title">Forward Bot PRO preview</title>
  <desc id="desc">A dashboard preview for Forward Bot PRO showing source channels, approved destinations, and forwarding queue status.</desc>
  <rect width="1200" height="675" fill="#f6f8f3"/>
  <rect x="74" y="62" width="1052" height="550" rx="22" fill="#ffffff" stroke="#d7dfd0"/>
  <rect x="74" y="62" width="1052" height="70" rx="22" fill="#183626"/>
  <text x="116" y="106" font-family="Segoe UI, Arial, sans-serif" font-size="27" font-weight="700" fill="#ffffff">Forward Bot PRO</text>
  <text x="923" y="104" font-family="Segoe UI, Arial, sans-serif" font-size="16" fill="#c8d8ce">v2.0.0</text>
  <rect x="112" y="170" width="420" height="380" rx="18" fill="#eef7ec"/>
  <text x="148" y="214" font-family="Segoe UI, Arial, sans-serif" font-size="20" font-weight="700" fill="#183626">Source message</text>
  <rect x="148" y="244" width="335" height="96" rx="14" fill="#ffffff" stroke="#d7dfd0"/>
  <text x="176" y="282" font-family="Segoe UI, Arial, sans-serif" font-size="16" fill="#42534a">Product announcement</text>
  <text x="176" y="310" font-family="Segoe UI, Arial, sans-serif" font-size="14" fill="#697a70">Approved update ready for forwarding</text>
  <rect x="148" y="374" width="335" height="42" rx="10" fill="#2e7d50"/>
  <text x="177" y="401" font-family="Segoe UI, Arial, sans-serif" font-size="15" font-weight="700" fill="#ffffff">Formatting rules active</text>
  <rect x="584" y="170" width="504" height="380" rx="18" fill="#ffffff" stroke="#d7dfd0"/>
  <text x="622" y="214" font-family="Segoe UI, Arial, sans-serif" font-size="20" font-weight="700" fill="#183626">Approved destinations</text>
  <rect x="622" y="250" width="170" height="70" rx="12" fill="#eef7ec"/>
  <text x="650" y="292" font-family="Segoe UI, Arial, sans-serif" font-size="15" font-weight="700" fill="#2e7d50">Community A</text>
  <rect x="824" y="250" width="170" height="70" rx="12" fill="#eef7ec"/>
  <text x="852" y="292" font-family="Segoe UI, Arial, sans-serif" font-size="15" font-weight="700" fill="#2e7d50">Channel B</text>
  <rect x="622" y="354" width="372" height="118" rx="14" fill="#f7faf5" stroke="#d7dfd0"/>
  <text x="654" y="393" font-family="Segoe UI, Arial, sans-serif" font-size="16" fill="#42534a">Queue status</text>
  <rect x="654" y="420" width="278" height="14" rx="7" fill="#d7dfd0"/>
  <rect x="654" y="420" width="214" height="14" rx="7" fill="#2e7d50"/>
  <text x="654" y="461" font-family="Segoe UI, Arial, sans-serif" font-size="14" fill="#697a70">Pacing controls enabled</text>
</svg>
